#define ./forest2.xbm_width 24
#define ./forest2.xbm_height 24
static char ./forest2.xbm_bits[] = {
   0x00, 0x00, 0x00, 0x08, 0x00, 0x00, 0x08, 0x00, 0x00, 0x7c, 0x00, 0x00,
   0x2e, 0x40, 0x00, 0x7a, 0x40, 0x48, 0xef, 0xe8, 0x00, 0xdc, 0x00, 0x00,
   0x3e, 0x00, 0x04, 0x2a, 0x00, 0x3e, 0x08, 0x80, 0x1f, 0x88, 0x0e, 0x3f,
   0x88, 0x8b, 0x77, 0xc8, 0x1e, 0x6e, 0xc0, 0x1f, 0x1f, 0x80, 0x2e, 0x15,
   0x80, 0x0f, 0x04, 0x8c, 0x0a, 0x04, 0x1c, 0x62, 0x04, 0x2a, 0xa2, 0x04,
   0x00, 0xd2, 0x01, 0x00, 0x02, 0x00, 0x00, 0x00, 0x00, 0x00, 0x00, 0x00};
