#define ./forest.xbm_width 24
#define ./forest.xbm_height 24
static char ./forest.xbm_bits[] = {
   0x00, 0x00, 0x10, 0x00, 0x00, 0x38, 0x10, 0x00, 0x10, 0x38, 0x00, 0x38,
   0x10, 0x00, 0x10, 0x38, 0x00, 0x7c, 0x10, 0x00, 0x10, 0x7c, 0x00, 0x7c,
   0x10, 0x00, 0x10, 0x7c, 0x40, 0xfe, 0x10, 0xe0, 0x10, 0xfe, 0x40, 0x10,
   0x10, 0xe0, 0x00, 0x10, 0x40, 0x00, 0x00, 0xf0, 0x01, 0x00, 0x40, 0x00,
   0x00, 0xf0, 0x01, 0x00, 0x40, 0x00, 0x00, 0xf8, 0x03, 0x00, 0x40, 0x00,
   0x00, 0x40, 0x00, 0x00, 0x00, 0x00, 0x00, 0x00, 0x00, 0x00, 0x00, 0x00};
